<?xml version="1.0" encoding="UTF-8" standalone="no"?>
<!DOCTYPE svg PUBLIC "-//W3C//DTD SVG 1.1//EN" "http://www.w3.org/Graphics/SVG/1.1/DTD/svg11.dtd">
<svg version="1.1" xmlns="http://www.w3.org/2000/svg" xmlns:xlink="http://www.w3.org/1999/xlink" preserveAspectRatio="xMidYMid meet" viewBox="0 0 1500 1500" width="1500" height="1500"><defs><path d="M625.19 1463.94L157.98 1463.94C158.11 1431.84 158.18 1414.01 158.19 1410.44C158.73 1275.07 258.77 1163.52 384.1 1161.22C385.45 1161.19 386.81 1161.18 388.17 1161.18C388.17 1161.18 388.17 1161.18 388.17 1161.18C416.37 1161.16 444.35 1166.59 470.77 1177.21C559.45 1212.88 618.97 1303.5 622.93 1405.61C623.23 1413.39 623.99 1432.83 625.19 1463.94Z" id="coG1yxLoP"></path><path d="M769.69 1463.94C769.69 1463.94 769.69 1463.94 769.69 1463.94C769.69 1465.19 769.69 1465.88 769.69 1466.02C769.69 1466.02 769.69 1466.02 769.69 1466.02C307.88 1466.02 51.31 1466.02 0 1466.02C0 1466.02 0 1466.02 0 1466.02C0 1464.77 0 1464.08 0 1463.94C0 1463.94 0 1463.94 0 1463.94C461.81 1463.94 718.38 1463.94 769.69 1463.94Z" id="anJHmYnHh"></path><path d="M404.26 1240.82L424.85 1430.83L473.51 1430.83L456.67 1214.55L389.29 1186.25L383.68 1224.65L383.68 1224.65L404.26 1240.82Z" id="aLOm7VaCh"></path><path d="M297.59 1164.01C297.59 1164.01 291.97 1232.74 314.43 1234.76C314.43 1234.76 422.98 1214.55 422.98 1214.55C425.72 1225.06 439.45 1277.61 464.15 1372.21C501.21 1351.59 521.8 1340.14 525.91 1337.85C525.91 1337.85 488.48 1159.97 466.02 1149.86C466.02 1149.86 368.7 1119.55 368.7 1119.55C365.09 1120.22 347 1123.59 314.43 1129.65C305.45 1147.98 299.83 1159.43 297.59 1164.01Z" id="b17Z7FWP8a"></path><path d="M432.34 1426.78C432.34 1426.78 421.11 1473.27 428.59 1477.32C433.1 1479.75 437.47 1482.45 441.69 1485.4C441.69 1484.59 441.69 1478.12 441.69 1477.32C441.69 1477.32 451.05 1487.42 451.05 1495.51C451.05 1495.51 501.58 1505.61 501.58 1495.51C501.58 1495.51 499.71 1473.27 490.35 1467.21C490.35 1467.21 469.77 1426.78 469.77 1426.78C462.28 1426.78 439.82 1426.78 432.34 1426.78Z" id="dLrRTwXZ3"></path><path d="M490.35 1382.32L503.45 1406.57L535.27 1368.17L510.94 1325.72L486.61 1343.91L486.61 1343.91L490.35 1382.32Z" id="fwKgvmmim"></path><path d="M530.29 1359.48C530.29 1359.48 563.34 1388.38 563.34 1388.38C565.21 1389.59 580.19 1399.29 582.06 1400.51C582.06 1400.51 619.49 1404.55 608.26 1416.68C608.26 1416.68 555.86 1444.98 537.14 1436.89C537.14 1436.89 514.68 1426.78 514.68 1426.78C514.31 1427.05 512.44 1428.4 509.07 1430.83L486.61 1424.76C488.86 1399.29 490.1 1385.14 490.35 1382.32C490.35 1382.32 495.97 1400.51 516.55 1382.32C519.3 1377.75 523.45 1356.87 530.29 1359.48Z" id="c4HBkW1ML4"></path><path d="M361.22 818.37C337.45 818.37 318.17 839.19 318.17 864.86C318.17 890.54 337.45 911.35 361.22 911.35C384.99 911.35 404.26 890.54 404.26 864.86C404.26 839.19 384.99 818.37 361.22 818.37Z" id="c1C6MEDZhM"></path><path d="M326.6 934.6C315.37 934.6 328.47 987.15 358.41 987.15C388.36 987.15 399.58 924.49 399.58 924.49C399.58 924.49 379 916.4 382.74 890.13C386.48 863.85 334.08 892.15 334.08 892.15C332.58 900.64 337.82 934.6 326.6 934.6Z" id="a2xh0GSgmx"></path><path d="M315.37 938.64C289.75 950.34 275.51 956.85 272.67 958.15C269.13 959.76 267 963.7 267.43 967.82C269.04 983.3 281.94 1107.1 283.55 1122.58C283.55 1122.58 266.71 1160.98 292.91 1163C293.16 1163.95 294.41 1168.66 296.65 1177.15L326.6 1138.75L438.89 1134.71L440.76 938.64C409.93 925.48 392.8 918.17 389.38 916.71C389.38 916.71 382.39 958.44 331.1 931.36C329 932.33 323.76 934.76 315.37 938.64Z" id="alNonepR"></path><path d="M278.87 963.9C274.72 962.62 272.42 961.91 271.96 961.77C268.93 960.84 265.77 962.73 264.91 966C264.84 966.24 264.79 966.48 264.76 966.72C262.92 979.16 248.24 1078.63 246.41 1091.06C244.97 1100.27 246.34 1109.73 250.31 1118.02C255.98 1129.62 267.76 1140.14 291.97 1127.63C293.1 1118.87 298.71 1075.08 308.82 996.25L278.87 963.9Z" id="b2aP1g8wC8"></path><path d="M419.24 935.61L441.69 939.65L503.45 1032.63L509.07 1048.8C530.4 1041.52 542.26 1037.48 544.63 1036.67C544.63 1036.67 542.76 1054.86 561.47 1052.84C561.47 1052.84 539.01 1119.55 492.23 1099.33C445.44 1079.12 430.46 1018.48 430.46 1018.48C428.97 1007.43 425.22 979.81 419.24 935.61Z" id="gr8QPfnGR"></path><path d="M361.22 939.65L357.48 951.78L396.78 988.16L445.44 976.03L445.44 976.03L361.22 939.65Z" id="b6KHyYsP1e"></path><path d="M337.18 863.31C337.46 853.8 342.77 844.04 351.2 841.27C354.43 840.31 357.82 840.11 361.13 840.68C365.86 841.36 370.43 843 374.59 845.53C376.78 846.86 378.94 848.47 381.43 848.87C383.07 849.14 390.19 851.38 391.83 851.69C395.43 852.38 398.78 855.86 402.23 854.57C405.54 853.33 406.27 848.71 406.35 844.93C406.53 836.32 400.48 824.41 395.15 818.01C391.11 813.15 385.02 810.9 379.07 809.74C372.12 808.53 365.07 808.07 358.03 808.35C348.51 808.54 338.72 809.33 330.13 813.78C321.54 818.23 314.32 827.09 313.91 837.37C313.82 839.52 314.03 841.67 313.86 843.8C313.46 849.01 310.89 853.72 309.69 858.78C307.96 866.3 309.24 874.26 313.24 880.69C316.43 885.76 329.17 890.36 328.99 896.48C331.29 893.9 325.86 891.31 328.16 888.73C330.29 886.98 330.99 883.86 329.85 881.24C329.61 880.21 327.65 871.96 327.4 870.93C326.96 869.05 326.52 867 327.19 865.2C329.82 858.2 332.65 868.59 335.3 867.82C336.89 867.37 337.13 865.09 337.18 863.31Z" id="h46LL9dixF"></path><path d="M321.92 1101.35L460.41 1153.91L540.88 1081.14L591.42 917.42L509.07 982.1L357.48 951.78L357.48 951.78L321.92 1101.35Z" id="fc7rRN82f"></path><path d="M364.26 967.98C364.26 967.98 364.26 967.98 364.26 967.98C445.11 991.02 490.03 1003.83 499.01 1006.39C499.01 1006.39 499.01 1006.39 499.01 1006.39C498.73 1007.56 498.57 1008.21 498.54 1008.34C498.54 1008.34 498.54 1008.34 498.54 1008.34C417.69 985.3 372.77 972.5 363.79 969.94C363.79 969.94 363.79 969.94 363.79 969.94C364.07 968.76 364.23 968.11 364.26 967.98Z" id="a382sdnOG"></path><path d="M360.52 978.09C360.52 978.09 360.52 978.09 360.52 978.09C441.37 1001.13 486.29 1013.93 495.27 1016.49C495.27 1016.49 495.27 1016.49 495.27 1016.49C494.98 1017.66 494.83 1018.32 494.79 1018.45C494.79 1018.45 494.79 1018.45 494.79 1018.45C413.94 995.4 369.03 982.6 360.04 980.04C360.04 980.04 360.04 980.04 360.04 980.04C360.33 978.87 360.49 978.22 360.52 978.09Z" id="b4MAV6S7Q"></path><path d="M358.65 988.19C358.65 988.19 358.65 988.19 358.65 988.19C439.5 1011.24 484.42 1024.04 493.4 1026.6C493.4 1026.6 493.4 1026.6 493.4 1026.6C493.11 1027.77 492.95 1028.42 492.92 1028.55C492.92 1028.55 492.92 1028.55 492.92 1028.55C412.07 1005.51 367.16 992.71 358.17 990.15C358.17 990.15 358.17 990.15 358.17 990.15C358.46 988.98 358.62 988.32 358.65 988.19Z" id="b8kQDKu7lB"></path><path d="M356.78 998.3C356.78 998.3 356.78 998.3 356.78 998.3C437.63 1021.34 482.54 1034.15 491.53 1036.71C491.53 1036.71 491.53 1036.71 491.53 1036.71C491.24 1037.88 491.08 1038.53 491.05 1038.66C491.05 1038.66 491.05 1038.66 491.05 1038.66C410.2 1015.62 365.28 1002.82 356.3 1000.25C356.3 1000.25 356.3 1000.25 356.3 1000.25C356.59 999.08 356.75 998.43 356.78 998.3Z" id="beDLLWzR"></path><path d="M354.91 1008.41C354.91 1008.41 354.91 1008.41 354.91 1008.41C435.76 1031.45 480.67 1044.25 489.66 1046.81C489.66 1046.81 489.66 1046.81 489.66 1046.81C489.37 1047.98 489.21 1048.64 489.18 1048.77C489.18 1048.77 489.18 1048.77 489.18 1048.77C408.33 1025.72 363.41 1012.92 354.43 1010.36C354.43 1010.36 354.43 1010.36 354.43 1010.36C354.72 1009.19 354.88 1008.54 354.91 1008.41Z" id="dLm5lZDSi"></path><path d="M353.04 1018.51C353.04 1018.51 353.04 1018.51 353.04 1018.51C433.89 1041.56 478.8 1054.36 487.79 1056.92C487.79 1056.92 487.79 1056.92 487.79 1056.92C487.5 1058.09 487.34 1058.74 487.31 1058.87C487.31 1058.87 487.31 1058.87 487.31 1058.87C406.46 1035.83 361.54 1023.03 352.56 1020.47C352.56 1020.47 352.56 1020.47 352.56 1020.47C352.84 1019.3 353 1018.64 353.04 1018.51Z" id="l1B86PMOj"></path><path d="M351.16 1028.62C351.16 1028.62 351.16 1028.62 351.16 1028.62C432.01 1051.66 476.93 1064.46 485.91 1067.03C485.91 1067.03 485.91 1067.03 485.91 1067.03C485.63 1068.2 485.47 1068.85 485.44 1068.98C485.44 1068.98 485.44 1068.98 485.44 1068.98C404.59 1045.94 359.67 1033.13 350.69 1030.57C350.69 1030.57 350.69 1030.57 350.69 1030.57C350.97 1029.4 351.13 1028.75 351.16 1028.62Z" id="d1BiRzWT4Q"></path><path d="M349.29 1038.73C349.29 1038.73 349.29 1038.73 349.29 1038.73C430.14 1061.77 475.06 1074.57 484.04 1077.13C484.04 1077.13 484.04 1077.13 484.04 1077.13C483.76 1078.3 483.6 1078.96 483.56 1079.09C483.56 1079.09 483.56 1079.09 483.56 1079.09C402.71 1056.04 357.8 1043.24 348.81 1040.68C348.81 1040.68 348.81 1040.68 348.81 1040.68C349.1 1039.51 349.26 1038.86 349.29 1038.73Z" id="d1ADXeVZcQ"></path><path d="M347.42 1048.83C347.42 1048.83 347.42 1048.83 347.42 1048.83C428.27 1071.88 473.19 1084.68 482.17 1087.24C482.17 1087.24 482.17 1087.24 482.17 1087.24C481.88 1088.41 481.72 1089.06 481.69 1089.19C481.69 1089.19 481.69 1089.19 481.69 1089.19C400.84 1066.15 355.93 1053.35 346.94 1050.79C346.94 1050.79 346.94 1050.79 346.94 1050.79C347.23 1049.61 347.39 1048.96 347.42 1048.83Z" id="al7nyyyiZ"></path><path d="M300.41 1061.8C300.41 1061.8 342.5 1034.65 361.22 1052.84C361.22 1052.84 306.94 1097.31 306.94 1097.31C305.64 1090.21 301.72 1068.91 300.41 1061.8Z" id="biGSnEhyO"></path><path d="M308.82 1052.84C308.82 1052.84 299.46 1091.25 318.17 1093.27C315.55 1096.7 294.59 1124.19 291.97 1127.63C291.97 1127.63 239.57 1127.63 254.54 1075.08C265.4 1070.63 303.39 1055.07 308.82 1052.84Z" id="a4wahHsJsN"></path><path d="M469.38 1100.46L452.34 1140.59L380.32 1114.37L397.36 1074.25L397.36 1074.25L469.38 1100.46Z" id="a2MZHKDpa"></path><path d="M579.25 944.7L564.28 999.28L508.13 1043.75L524.98 989.17L524.98 989.17L579.25 944.7Z" id="agPukvTp"></path><path d="M552.48 1018.69C552.48 1018.69 552.48 1018.69 552.48 1018.69C553.16 1019.65 553.54 1020.19 553.62 1020.3C553.62 1020.3 553.62 1020.3 553.62 1020.3C521.05 1046.98 502.96 1061.8 499.34 1064.76C499.34 1064.76 499.34 1064.76 499.34 1064.76C498.66 1063.8 498.28 1063.26 498.21 1063.15C498.21 1063.15 498.21 1063.15 498.21 1063.15C530.77 1036.47 548.87 1021.65 552.48 1018.69Z" id="aCRYVeKmq"></path><path d="M548.74 1040.92C548.74 1040.92 548.74 1040.92 548.74 1040.92C549.42 1041.89 549.8 1042.42 549.87 1042.53C549.87 1042.53 549.87 1042.53 549.87 1042.53C517.31 1069.21 499.22 1084.03 495.6 1087C495.6 1087 495.6 1087 495.6 1087C494.92 1086.03 494.54 1085.5 494.47 1085.39C494.47 1085.39 494.47 1085.39 494.47 1085.39C527.03 1058.71 545.12 1043.89 548.74 1040.92Z" id="bvHN4NQiD"></path><path d="M572.7 1012.42C572.7 1012.42 542.76 1046.78 542.76 1046.78C542.76 1046.78 540.88 1056.88 555.86 1054.86C559.23 1046.37 602.64 1024.54 572.7 1012.42Z" id="b2UOboiDVa"></path><path d="M279.81 1065.98L308.82 1057.04L285.42 1057.9L281.68 987.15L281.68 987.15L279.81 1065.98Z" id="bsTdimmt8"></path><path d="M631.94 1202.8C631.94 1202.8 631.94 1202.8 631.94 1202.8C631.94 1221.52 631.94 1231.93 631.94 1234.01C631.94 1234.01 631.94 1234.01 631.94 1234.01C614.6 1234.01 604.96 1234.01 603.04 1234.01C603.04 1234.01 603.04 1234.01 603.04 1234.01C603.04 1215.28 603.04 1204.88 603.04 1202.8C603.04 1202.8 603.04 1202.8 603.04 1202.8C620.38 1202.8 630.01 1202.8 631.94 1202.8Z" id="b2PUSpFJ5T"></path><path d="M516.34 849.06C516.34 849.06 516.34 849.06 516.34 849.06C516.34 867.78 516.34 878.19 516.34 880.27C516.34 880.27 516.34 880.27 516.34 880.27C499 880.27 489.37 880.27 487.44 880.27C487.44 880.27 487.44 880.27 487.44 880.27C487.44 861.54 487.44 851.14 487.44 849.06C487.44 849.06 487.44 849.06 487.44 849.06C504.78 849.06 514.41 849.06 516.34 849.06Z" id="ceuY4aLSg"></path><path d="M153.17 1134.13C145.19 1134.13 138.72 1141.12 138.72 1149.74C138.72 1158.35 145.19 1165.34 153.17 1165.34C161.15 1165.34 167.62 1158.35 167.62 1149.74C167.62 1141.12 161.15 1134.13 153.17 1134.13Z" id="a6yUwyxyw"></path><path d="M1500 228.01C1499.96 233.12 1499.75 237.17 1499.73 238.18C1493.78 363.19 1394.21 459.38 1277.32 453.02C1169.81 447.17 1083.48 356.04 1076.61 241.14C1076.17 233.95 1076.22 228.1 1076.17 226.65C1076.1 179.71 1089.72 133.91 1115.14 95.64C1118.19 91.02 1120.85 87.47 1121.48 86.56C1123 84.5 1124.55 82.48 1126.13 80.47C1200.54 -13.81 1331.78 -27.13 1421.45 50.5C1424 52.7 1426.51 54.99 1428.96 57.31C1431.9 60.11 1434.16 62.46 1434.74 63.03C1472.03 101.18 1494.98 152.6 1499.26 207.59C1499.75 213.88 1500 220.24 1500 226.65C1500 227.46 1500 227.92 1500 228.01Z" id="cGeIQxfLw"></path><path d="M1121.48 86.56C1121.59 86.61 1121.68 86.67 1121.77 86.75C1122.91 87.75 1121.48 89.68 1121.66 91.26C1121.86 93.3 1124.4 93.75 1126.31 93.95C1128.23 94.16 1130.65 95.81 1129.74 97.63C1124.93 99.41 1120.06 97.66 1115.14 95.64C1089.72 133.91 1076.1 179.71 1076.17 226.65C1076.17 233.96 1076.56 239.69 1076.61 241.14C1077.01 241.46 1077.45 241.71 1077.92 241.9C1079.36 242.48 1081.03 242.38 1082.36 243.21C1083.41 243.87 1084.12 245.04 1085.17 245.66C1088.18 247.42 1092.36 244.04 1095.17 246.14C1095.9 246.85 1096.59 247.6 1097.24 248.39C1099.83 250.79 1104.1 249.18 1107.1 250.98C1109.03 252.14 1110.02 254.45 1111.06 256.55C1113.64 261.79 1117.82 266.94 1123.34 267.35C1125.08 267.27 1126.83 267.33 1128.56 267.54C1130.26 267.95 1131.93 269.54 1131.66 271.38C1131.19 274.54 1132.64 277.99 1132.25 281.15C1131.55 286.93 1123.89 289.46 1123.24 295.24C1123.24 296.52 1123.17 297.79 1123.04 299.05C1122.69 300.56 1121.63 301.8 1121.25 303.31C1120.53 306.16 1122.45 309.01 1124.54 310.92C1126.64 312.85 1129.15 314.52 1130.31 317.2C1131.52 320.05 1130.93 323.37 1131.31 326.47C1132.18 333.23 1137.64 338.25 1143.27 341.48C1145.07 342.29 1146.67 343.53 1147.94 345.12C1149.38 347.36 1149.23 350.3 1149.72 352.97C1150.91 359.49 1156.04 364.87 1156.18 371.52C1156.28 376.25 1153.83 380.54 1152.36 384.99C1150.85 389.66 1150.4 394.65 1151.05 399.55C1159.27 407 1168.01 413.78 1177.19 419.82C1177.69 419.03 1178.05 418.16 1178.27 417.23C1178.62 415.14 1177.74 413.03 1176.03 411.93C1177.58 411.3 1178.99 410.34 1180.17 409.09C1181.36 407.79 1181.66 405.83 1180.92 404.19C1183.46 404.53 1186.47 404.7 1188.14 402.62C1189.48 400.95 1189.4 398.45 1188.86 396.34C1188.33 394.21 1187.44 392.16 1187.42 389.96C1193.3 390.26 1199.19 390.05 1205.04 389.33C1204.19 386.28 1202.27 383.7 1199.67 382.14C1202.33 381.66 1204.73 378.27 1205.57 375.54C1206.29 372.76 1206.33 369.82 1205.69 367.02C1205.49 366.29 1205.46 365.53 1205.6 364.8C1206.03 363.82 1206.78 363.04 1207.7 362.62C1214.28 358.57 1219.54 355.35 1220.85 354.54C1221.63 354.12 1222.34 353.56 1222.96 352.89C1224.33 351.15 1224.12 348.54 1223.42 346.4C1222.71 344.26 1221.59 342.24 1221.31 339.99C1220.51 333.25 1227.25 328.41 1229.53 322.06C1230.3 319.52 1230.72 316.88 1230.77 314.21C1230.96 311.34 1230.97 308.03 1228.92 306.19C1226.95 304.42 1223.88 304.82 1221.82 303.17C1219.93 301.66 1219.28 298.74 1217.22 297.53C1215.34 296.42 1213.01 297.13 1210.92 296.6C1207.26 295.69 1204.95 291.17 1201.2 290.76C1199.1 290.51 1196.71 291.62 1194.98 290.31C1193.45 289.14 1193.39 286.81 1193.1 284.84C1192.05 278.54 1187.45 273.61 1181.57 272.47C1179.39 272.1 1177.03 272.24 1175.17 270.96C1173.29 269.67 1172.44 267.25 1170.96 265.44C1168.59 262.56 1164.85 261.53 1161.34 260.65C1154.21 258.87 1148.51 257.43 1147.09 257.07C1144.56 256.42 1141.31 256.08 1139.94 258.46C1139.53 259.36 1139.25 260.32 1139.1 261.31C1138.04 264.96 1134.92 267.47 1131.34 267.54C1130.15 265.36 1128.22 263.76 1125.95 263.07C1124.47 262.8 1123.01 262.43 1121.57 261.96C1118.52 260.36 1117.27 256.43 1118.76 253.17C1118.81 253.06 1118.86 252.95 1118.92 252.85C1120.6 249.63 1120.06 245.61 1117.61 243.02C1115.18 240.7 1111.68 240.13 1108.42 240.36C1107.57 238.37 1109 236.13 1110.53 234.68C1112.07 233.25 1113.93 231.83 1114.26 229.67C1114.79 226.28 1110.74 223.71 1107.67 224.71C1104.6 225.73 1102.64 228.92 1101.34 232.06C1100.72 233.92 1099.86 235.68 1098.79 237.29C1097.68 238.92 1095.81 239.74 1093.95 239.42C1091.41 238.72 1090.45 235.5 1089.88 232.79C1088.98 229.16 1088.53 225.42 1088.53 221.67C1088.55 217.88 1089.96 214.25 1092.45 211.56C1096.64 207.42 1103.1 207.82 1108.77 208.49C1107.51 206.7 1107.7 204.19 1109.2 202.63C1110.74 201.17 1112.86 200.61 1114.85 201.15C1116.56 201.53 1118.1 202.51 1119.22 203.94C1120.83 206.04 1121.3 208.89 1122.51 211.26C1123.73 213.65 1126.47 215.69 1128.71 214.41C1130.65 213.3 1130.95 210.43 1130.48 208.13C1129.99 205.85 1128.97 203.62 1129.14 201.27C1129.47 196.82 1133.81 194.12 1137.63 192.28C1141.45 190.45 1145.82 187.97 1146.42 183.53C1146.45 182.66 1146.61 181.81 1146.88 181C1147.31 180.27 1147.9 179.68 1148.6 179.27C1159.74 171.39 1171.09 163.41 1183.83 159.1C1184.49 158.87 1184.57 159.12 1185.24 158.95C1186.2 158.36 1185.56 156.75 1184.65 156.1C1183.75 155.45 1182.53 154.94 1182.3 153.8C1182.15 152.97 1182.61 152.14 1182.72 151.29C1182.82 149.56 1181.6 148.07 1179.98 147.96C1179.6 147.93 1179.23 147.99 1178.87 148.11C1177.85 146.66 1179.87 144.98 1181.51 144.49C1186.43 143.05 1191.48 142.17 1196.58 141.87C1197.16 141.76 1197.77 141.87 1198.29 142.18C1199.07 142.98 1199.13 144.29 1198.42 145.17C1197.73 145.99 1196.96 146.74 1196.13 147.4C1194.44 149.15 1193.81 151.76 1194.49 154.17C1197.15 155.62 1200.04 157.12 1202.99 156.61C1205.93 156.1 1208.54 152.55 1207.16 149.73C1205.87 147.09 1202 146.49 1201.33 143.61C1200.55 140.23 1205.02 137.23 1204.01 133.93C1203.58 132.48 1202.23 131.61 1201.19 130.58C1198.69 127.95 1197.95 123.95 1199.33 120.5C1195.9 121.14 1192.4 119.97 1189.93 117.35C1187.68 114.93 1185.89 111.09 1182.69 111.22C1179.77 111.31 1177.24 114.96 1174.5 113.85C1173.83 113.57 1173.12 113.02 1172.47 113.34C1172.04 113.64 1171.76 114.14 1171.71 114.68C1171.02 118.25 1172.21 122.3 1170.4 125.38C1168.42 128.73 1163.85 129.19 1161.46 132.22C1160.16 133.85 1159.66 136.05 1158.46 137.78C1157.26 139.51 1154.74 140.62 1153.3 139.11C1154.75 135.92 1153.95 132.08 1151.37 129.86C1150.04 128.92 1148.61 128.18 1147.1 127.64C1145.42 126.88 1143.82 125.93 1142.33 124.8C1141.59 124.32 1140.98 123.62 1140.58 122.79C1140.27 121.75 1140.31 120.63 1140.7 119.62C1142.19 115.08 1145.9 111.79 1150.34 111.08C1152.25 110.8 1154.47 110.89 1155.74 109.33C1156.4 108.52 1156.74 107.27 1157.72 106.95C1158.34 106.81 1158.98 106.89 1159.56 107.18C1161.93 108.07 1164.3 108.96 1166.68 109.86C1167.47 110.25 1168.35 110.4 1169.21 110.31C1170.11 110.18 1170.76 109.34 1170.7 108.38C1170.47 107.11 1168.65 106.51 1168.82 105.23C1168.91 104.82 1169.12 104.44 1169.42 104.15C1174.62 98.23 1182.03 95.11 1189.61 95.63C1190.51 97.22 1189.09 99.08 1187.9 100.42C1186.71 101.78 1185.76 104.19 1187.21 105.22C1187.79 105.54 1188.44 105.7 1189.09 105.68C1190.85 105.93 1192.55 106.48 1194.14 107.32C1196.6 108.46 1199.03 109.72 1201.39 111.08C1201.04 109.42 1201.1 107.7 1201.56 106.08C1202.1 104.43 1203.73 103.49 1205.31 103.91C1206.72 104.49 1207.44 106.5 1208.96 106.68C1210.96 106.93 1211.76 103.75 1210.92 101.78C1210.08 99.81 1208.41 98.17 1208.28 96C1208.18 94.55 1208.7 92.75 1207.62 91.87C1207.23 91.59 1206.79 91.42 1206.33 91.37C1192.76 88.71 1181.88 86.57 1179.16 86.04C1177.55 85.71 1175.23 85.96 1175.15 87.7C1175.11 88.69 1175.93 89.66 1175.57 90.56C1175.18 91.51 1173.91 91.43 1172.99 91.77C1171.57 92.46 1170.74 94.08 1170.97 95.74C1171.22 97.34 1171.8 98.86 1172.67 100.19C1170.9 99.41 1168.23 99.27 1166.46 98.47C1166.2 96.27 1165.68 94.12 1164.9 92.07C1164.74 90.83 1163.66 89.98 1162.51 90.16C1162.39 90.18 1162.27 90.21 1162.15 90.25C1159.81 90.63 1157.48 91 1155.14 91.39C1154.56 91.42 1154 91.65 1153.54 92.05C1152.64 93.08 1153.53 94.73 1153.5 96.15C1153.33 97.78 1152.21 99.11 1150.72 99.47C1149.25 99.79 1147.74 99.76 1146.28 99.41C1143.01 98.87 1139.75 98.33 1136.48 97.79C1139.36 96.8 1141.93 94.96 1143.89 92.48C1145.18 90.85 1145.87 87.8 1144 87.03C1143.45 86.86 1142.87 86.82 1142.3 86.89C1137.86 86.92 1134.36 82.95 1130.2 81.27C1128.9 80.75 1127.52 80.48 1126.13 80.47C1125.2 81.69 1122.41 85.34 1121.48 86.56Z" id="e1FRB5iY1"></path><path d="M1499.73 238.18C1498.69 239.66 1497.04 240.5 1495.31 240.42C1490.8 240 1488.9 233.05 1484.43 232.26C1484.04 232.15 1483.62 232.2 1483.25 232.39C1482.59 232.77 1482.47 233.73 1482.43 234.53C1482.24 238.51 1482.08 242.64 1483.54 246.31C1485.66 251.67 1491.15 256.18 1490 261.86C1483.8 258.8 1480.57 251.35 1479.11 244.21C1477.64 237.07 1477.41 229.58 1474.79 222.83C1472.78 225.56 1468.6 223.3 1466.79 220.44C1465.06 217.72 1463.99 214.58 1462.32 211.82C1460.64 209.07 1458.08 206.61 1455.02 206.45C1451.81 206.3 1449.01 208.66 1446.56 210.89C1444.43 212.58 1442.64 214.71 1441.3 217.15C1439.58 220.85 1440.03 225.2 1439.94 229.32C1439.86 233.76 1438.98 238.46 1436.14 241.73C1433.3 244.98 1428.06 246.12 1424.94 243.18C1423.42 241.49 1422.35 239.41 1421.81 237.15C1418.41 226.55 1415.58 215.75 1413.33 204.8C1412.81 207.3 1410.75 210.52 1408.79 209.06C1408.35 208.66 1408 208.17 1407.75 207.61C1404.09 200.99 1397.33 197.02 1390.48 194.63C1383.65 192.25 1376.46 191.14 1369.7 188.52C1365.9 187.05 1362.28 185.12 1358.9 182.77C1357.15 185.53 1356.95 189.09 1358.38 192.05C1359.94 194.98 1363.15 196.41 1366.19 195.55C1367.69 195.03 1368.96 193.92 1370.44 193.36C1371.93 192.82 1373.93 193.09 1374.58 194.63C1375.22 196.09 1374.27 197.86 1374.74 199.41C1375.45 201.73 1378.75 201.92 1379.9 204.05C1380.6 205.78 1380.16 207.79 1378.82 209.01C1377.49 210.17 1376.03 211.13 1374.47 211.88C1369.62 214.76 1366.18 219.68 1361.94 223.51C1357.7 227.34 1351.72 230.13 1346.67 227.68C1347.87 221.16 1340.62 216.38 1339.28 209.89C1338.83 207.75 1339.06 205.48 1338.44 203.4C1337.53 200.38 1335.03 198.31 1332.98 196.03C1327.95 190.37 1325.28 182.78 1325.55 174.98C1325.67 172.3 1326.13 169.57 1325.55 166.95C1324.99 164.35 1322.96 161.82 1320.45 161.93C1314.73 162.2 1307.51 162.67 1304.51 157.44C1303.43 155.57 1302.96 152.84 1304.52 151.41C1305.62 150.41 1307.23 150.5 1308.66 150.66C1312.97 151.1 1317.26 151.56 1321.58 152.01C1324.59 152.32 1327.85 152.58 1330.44 150.9C1333.04 149.22 1334.16 144.73 1331.75 142.75C1330.01 141.3 1326.87 141.37 1326.35 139.08C1325.93 137.15 1327.92 134.98 1326.84 133.36C1326.07 132.22 1324.34 132.52 1323.29 133.39C1322.37 134.41 1321.37 135.34 1320.31 136.18C1318.25 137.32 1315.79 136.22 1313.57 135.48C1311.35 134.74 1308.38 134.68 1307.32 136.89C1306.11 139.34 1308.37 142.58 1307.19 145.04C1305.6 148.3 1300.27 146.45 1298.05 149.25C1295.51 152.46 1299.78 157.27 1298.93 161.37C1296.7 162.55 1294.06 162.39 1291.96 160.95C1289.91 159.46 1288.79 156.88 1289.05 154.23C1289.25 152.38 1290.16 150.49 1289.56 148.74C1288.9 147.4 1287.83 146.34 1286.52 145.77C1280.24 142.04 1275.23 139.09 1273.97 138.35C1272.81 140.66 1274.28 143.52 1276.12 145.26C1277.95 146.99 1280.26 148.3 1281.47 150.58C1283.06 153.86 1281.99 157.9 1279.02 159.8C1278.65 160.07 1278.19 160.15 1277.77 160.03C1277.36 159.78 1277.07 159.36 1276.96 158.87C1274.75 152.81 1271.42 146.85 1266.12 143.69C1260.8 140.51 1253.17 141.17 1249.68 146.49C1248.86 147.76 1248.3 149.21 1247.58 150.55C1243.76 157.65 1235.54 161.02 1227.87 160.8C1227.12 160.85 1226.37 160.66 1225.72 160.26C1224.48 159.35 1224.54 157.41 1224.73 155.8C1225 153.54 1225.26 151.29 1225.54 149.02C1225.54 147.64 1226.04 146.31 1226.94 145.31C1228.36 144.1 1230.41 144.86 1232.23 144.83C1235.03 144.69 1237.46 142.69 1238.29 139.82C1239.04 136.93 1238.23 133.85 1236.19 131.8C1235.37 130.97 1234.26 129.92 1234.69 128.79C1235.05 128.16 1235.64 127.74 1236.32 127.62C1239.56 126.62 1243.01 126.36 1246.19 125.15C1249.39 123.97 1252.49 121.53 1253.26 118C1253.49 116.92 1253.59 115.61 1254.5 115.07C1254.96 114.87 1255.45 114.77 1255.94 114.76C1259.53 114.21 1262.14 110.82 1261.95 106.95C1263.48 105.8 1265.63 106.65 1267.11 107.87C1268.58 109.09 1269.89 110.69 1271.7 111.22C1275.06 112.2 1278.3 109.01 1281.79 109C1283.26 109 1284.77 109.55 1286.14 109.01C1287.54 108.47 1288.38 106.99 1289.44 105.9C1290.52 104.79 1292.4 104.12 1293.39 105.31C1293.1 103.08 1292.83 100.86 1292.54 98.63C1295.98 99.56 1299.62 98.85 1302.53 96.69C1298.9 95.38 1295.28 94.07 1291.65 92.76C1291.27 92.66 1290.91 92.46 1290.62 92.17C1289.83 91.27 1290.62 89.85 1291.26 88.81C1292.8 86.33 1293.06 82.25 1290.52 81.01C1288.79 80.16 1286.82 81.18 1285.16 82.17C1282.51 83.74 1279.86 85.33 1277.2 86.9C1276.96 88.52 1278.8 89.45 1279.94 90.53C1281.84 92.33 1282.01 95.43 1280.33 97.46C1279.47 98.5 1278.24 99.1 1276.94 99.11C1278 100.59 1278.38 102.5 1277.97 104.31C1276.19 104.45 1274.41 104.59 1272.62 104.72C1272.02 104.85 1271.4 104.72 1270.89 104.35C1270.31 103.82 1270.4 102.86 1270.25 102.06C1269.77 100.1 1268.22 98.65 1266.33 98.4C1264.5 98.18 1262.64 98.37 1260.87 98.94C1260.1 99.23 1259.26 99.21 1258.51 98.88C1258.08 98.58 1257.75 98.13 1257.58 97.62C1256.94 95.47 1257.4 93.12 1258.79 91.42C1260.18 89.78 1261.7 88.27 1263.35 86.93C1267.08 83.44 1269.82 78.9 1271.26 73.83C1274.2 72.5 1277.25 70.71 1280.2 69.39C1282.58 68.21 1285.07 67.31 1287.63 66.72C1290.03 66.33 1292.47 66.2 1294.91 66.35C1298.22 66.41 1301.55 66.47 1304.87 66.55C1307.83 66.42 1310.78 66.87 1313.59 67.89C1316.31 69.09 1318.72 71.7 1318.91 74.84C1319.02 75.57 1318.78 76.31 1318.26 76.8C1317.88 77.03 1317.44 77.14 1317.01 77.11C1314.25 77.2 1313.08 77.94 1310.33 78.05C1312.08 80.04 1314.04 82.14 1316.57 82.49C1321.04 83.11 1324.26 78.16 1326.32 73.86C1326.47 76.14 1328.29 77.87 1330.43 77.76C1331.53 77.56 1332.59 77.12 1333.53 76.46C1342.39 71.28 1352.33 68.54 1362.43 68.48C1362.22 66.78 1363.25 65.2 1364.81 64.81C1366.87 64.38 1368.71 66.27 1369.71 68.25C1370.69 70.22 1371.31 72.5 1372.9 73.98C1374.47 75.46 1377.51 75.38 1378.13 73.26C1378.73 71.21 1376.73 69.45 1375.07 68.23C1373.4 67.03 1371.66 64.79 1372.78 63C1381.26 60.98 1389.81 58.98 1398.5 58.58C1399.98 58.63 1401.45 58.35 1402.82 57.78C1404.22 57.14 1405.05 55.58 1404.84 53.97C1400.96 54.94 1396.92 53.31 1394.61 49.84C1403.53 49.05 1412.87 48.36 1421.45 50.5C1422.2 51.18 1428.21 56.63 1428.96 57.31C1427.53 58.9 1425.63 60.4 1426.67 61.99C1427.36 62.73 1428.33 63.08 1429.3 62.96C1431.12 62.99 1432.94 63.03 1434.74 63.03C1472.03 101.18 1494.98 152.6 1499.26 207.59C1496.24 207.47 1493.46 211.57 1493.84 215.15C1494.31 219.3 1497.1 222.63 1499.11 226.2C1499.44 226.78 1499.74 227.39 1500 228.01C1499.95 230.04 1499.78 236.15 1499.73 238.18Z" id="aD06hQsV"></path><path d="M1219.55 371.84C1199.43 371.84 1183.13 389.27 1183.13 410.78C1183.13 432.3 1199.43 449.73 1219.55 449.73C1239.66 449.73 1255.96 432.3 1255.96 410.78C1255.96 389.27 1239.66 371.84 1219.55 371.84Z" id="c9b5hvphA"></path><path d="M1186.91 459.46C1186.91 459.46 1214.87 476.68 1214.87 476.68C1214.87 476.68 1220.8 442.24 1223.34 440.43C1225.89 438.62 1202.16 430.46 1202.16 430.46C1199.11 436.26 1190.3 458.55 1186.91 459.46Z" id="a19Cere7Af"></path><path d="M1109.81 726.78L1133.53 736.75L1174.2 650.66L1131.84 660.63L1131.84 660.63L1109.81 726.78Z" id="bkzrLtbEi"></path><path d="M1255.54 729.5C1258.08 730.4 1275.88 714.09 1275.88 714.09C1275.88 714.09 1253.85 657 1247.07 654.28C1240.29 651.57 1208.94 662.44 1208.94 662.44C1218.26 675.85 1253 728.59 1255.54 729.5Z" id="beUI0ziLt"></path><path d="M1071.68 811.96C1071.68 811.96 1074.23 817.39 1071.68 818.3C1071.68 818.3 1063.21 833.71 1063.21 834.61C1063.21 834.61 1057.28 836.42 1057.28 839.14C1057.28 839.14 1052.2 863.61 1052.2 863.61C1052.2 863.61 1061.52 885.36 1067.45 879.01C1073.38 872.67 1075.92 859.98 1075.92 859.98C1076.77 857.63 1083.55 838.78 1084.39 836.42C1084.39 836.42 1083.55 823.74 1089.48 821.93C1089.48 821.93 1098.8 797.46 1098.8 797.46C1098.8 797.46 1108.12 787.49 1109.81 784.77C1109.81 784.77 1141.16 734.03 1138.62 733.12C1136.08 732.22 1106.42 715 1106.42 715C1099.47 734.39 1075.16 802.26 1071.68 811.96Z" id="a155IGOnX2"></path><path d="M1250.46 727.68C1265.71 716.81 1274.18 710.77 1275.88 709.56C1275.88 709.56 1319.93 795.65 1319.93 797.46C1319.93 797.46 1318.24 804.71 1319.93 806.52C1319.93 806.52 1336.03 837.33 1345.35 840.05C1345.35 840.05 1356.37 853.64 1348.74 855.45C1348.74 855.45 1330.95 861.8 1328.41 855.45C1326.92 851.72 1325.22 848.09 1323.32 844.58C1323.32 844.58 1314.85 847.3 1314 845.49C1313.02 842.82 1312.18 840.09 1311.46 837.33C1311.46 837.33 1304.68 824.64 1304.68 820.11C1304.68 820.11 1300.45 814.68 1300.45 814.68C1300.45 814.68 1291.13 791.12 1285.2 787.49C1285.2 787.49 1274.18 765.74 1274.18 765.74C1271.02 760.67 1263.11 747.98 1250.46 727.68Z" id="a1NL0STv6"></path><path d="M1219.96 398.75C1206.39 398.75 1195.38 410.51 1195.38 425.02C1195.38 439.54 1206.39 451.3 1219.96 451.3C1233.53 451.3 1244.53 439.54 1244.53 425.02C1244.53 410.51 1233.53 398.75 1219.96 398.75Z" id="b2RMwfOuea"></path><path d="M1115.81 687.83C1115.81 687.83 1261.53 691.1 1265.77 683.85C1265.77 683.85 1229.28 604.45 1227.58 603.54C1225.89 602.63 1147.09 584.51 1147.09 584.51C1140.83 605.17 1110.73 687.83 1115.81 687.83Z" id="a1GEMywsch"></path><path d="M1110.66 368.84C1095.41 343.83 1086.93 329.94 1085.24 327.16C1085.24 327.16 1091.53 283.43 1083.05 291.59C1083.05 291.59 1071.9 332.68 1071.9 332.68C1073.86 335.87 1083.67 351.86 1101.34 380.62L1110.66 368.84Z" id="b9LdOzgzv"></path><path d="M1341.11 444.96C1354.84 443.87 1362.47 443.27 1363.99 443.15C1363.99 443.15 1391.1 412.34 1392.8 422.31C1392.8 422.31 1370.77 454.02 1370.77 454.02C1368.68 454.26 1358.23 455.47 1339.42 457.65L1341.11 444.96Z" id="g1fP4SWjIk"></path><path d="M1174.2 444.96C1174.2 444.96 1152.17 429.56 1153.02 426.84C1153.87 424.12 1151.33 422.31 1151.33 422.31C1151.33 422.31 1148.79 418.68 1148.79 417.78C1148.79 416.87 1145.4 415.96 1145.4 415.96C1143.28 413.34 1126.33 392.31 1124.21 389.68C1124.21 389.68 1112.35 364.31 1109.81 365.22C1109.81 365.22 1093.71 371.56 1095.41 375.19C1095.41 375.19 1144.55 456.74 1144.55 456.74C1144.55 456.74 1147.09 473.96 1151.33 473.96C1155.56 473.96 1174.2 454.02 1174.2 454.02C1174.2 452.21 1174.2 445.87 1174.2 444.96Z" id="bIWY2a972"></path><path d="M1230.97 464.9C1230.97 464.9 1249.61 463.99 1250.46 464.9C1250.46 464.9 1263.17 464.9 1263.17 464.9C1263.17 464.9 1295.36 456.74 1297.9 454.02C1297.9 454.02 1342.81 439.52 1344.5 444.96C1344.5 444.96 1350.43 461.27 1346.2 463.08C1346.2 463.08 1227.58 495.71 1227.58 495.71C1228.26 489.54 1230.29 471.06 1230.97 464.9Z" id="c27vruIZ4U"></path><path d="M1206.81 353.67C1198.49 353.67 1191.74 360.89 1191.74 369.79C1191.74 378.69 1198.49 385.91 1206.81 385.91C1215.13 385.91 1221.88 378.69 1221.88 369.79C1221.88 360.89 1215.13 353.67 1206.81 353.67Z" id="jlVgkdCVQ"></path><path d="M1200.22 345.03C1199.69 344.97 1199.17 344.94 1198.65 344.94C1190.32 344.94 1183.58 352.16 1183.58 361.06C1183.58 369.96 1190.32 377.18 1198.65 377.18C1199.17 377.18 1199.69 377.15 1200.22 377.09C1192.54 376.23 1186.72 369.31 1186.72 361.06C1186.72 352.81 1192.54 345.89 1200.22 345.03Z" id="e161Avf1mF"></path><path d="M1248.9 402.53C1248.9 411.43 1237.65 418.64 1223.78 418.64C1209.91 418.64 1198.67 411.43 1198.67 402.53C1198.67 393.63 1209.91 386.41 1223.78 386.41C1237.65 386.41 1248.9 393.63 1248.9 402.53Z" id="d25Xm8ZXts"></path><path d="M1185.64 451.76C1185.64 451.76 1173.78 443.6 1172.09 443.6C1172.09 443.6 1148.36 470.79 1148.36 470.79C1148.36 470.79 1152.46 475.83 1148.36 501.6C1146.83 511.26 1143.78 552.57 1143.78 558.01C1143.78 563.45 1127.18 576.81 1142.43 588.59C1157.68 600.37 1230.55 613.05 1231.39 605.8C1232.24 598.56 1222.92 579.53 1227.16 570.46C1231.39 561.4 1231.39 527.87 1231.39 527.87C1231.73 525.52 1233.43 513.74 1236.48 492.53C1239.02 475.68 1240.43 466.32 1240.71 464.44C1240.71 464.44 1220.8 458.55 1219.11 458.55C1217.41 458.55 1209.79 471.24 1194.96 444.51C1193.1 445.96 1187.34 450.85 1185.64 451.76Z" id="d7co4cULk"></path><path d="M1496.64 893.67C1496.64 893.67 1496.64 893.67 1496.64 893.67C1496.64 895.36 1496.64 896.29 1496.64 896.48C1496.64 896.48 1496.64 896.48 1496.64 896.48C1028.62 896.48 768.6 896.48 716.6 896.48C716.6 896.48 716.6 896.48 716.6 896.48C716.6 894.79 716.6 893.86 716.6 893.67C716.6 893.67 716.6 893.67 716.6 893.67C1184.63 893.67 1444.64 893.67 1496.64 893.67Z" id="a2iOU7FkA0"></path></defs><g><g><g><use xlink:href="#coG1yxLoP" opacity="1" fill="#546d96" fill-opacity="1"></use><g><use xlink:href="#coG1yxLoP" opacity="1" fill-opacity="0" stroke="#000000" stroke-width="1" stroke-opacity="0"></use></g></g><g><use xlink:href="#anJHmYnHh" opacity="1" fill="#2f2e41" fill-opacity="1"></use><g><use xlink:href="#anJHmYnHh" opacity="1" fill-opacity="0" stroke="#000000" stroke-width="1" stroke-opacity="0"></use></g></g><g><use xlink:href="#aLOm7VaCh" opacity="1" fill="#2f2e41" fill-opacity="1"></use><g><use xlink:href="#aLOm7VaCh" opacity="1" fill-opacity="0" stroke="#000000" stroke-width="1" stroke-opacity="0"></use></g></g><g><use xlink:href="#b17Z7FWP8a" opacity="1" fill="#2f2e41" fill-opacity="1"></use><g><use xlink:href="#b17Z7FWP8a" opacity="1" fill-opacity="0" stroke="#000000" stroke-width="1" stroke-opacity="0"></use></g></g><g><use xlink:href="#dLrRTwXZ3" opacity="1" fill="#2f2e41" fill-opacity="1"></use><g><use xlink:href="#dLrRTwXZ3" opacity="1" fill-opacity="0" stroke="#000000" stroke-width="1" stroke-opacity="0"></use></g></g><g><use xlink:href="#fwKgvmmim" opacity="1" fill="#2f2e41" fill-opacity="1"></use><g><use xlink:href="#fwKgvmmim" opacity="1" fill-opacity="0" stroke="#000000" stroke-width="1" stroke-opacity="0"></use></g></g><g><use xlink:href="#c4HBkW1ML4" opacity="1" fill="#2f2e41" fill-opacity="1"></use><g><use xlink:href="#c4HBkW1ML4" opacity="1" fill-opacity="0" stroke="#000000" stroke-width="1" stroke-opacity="0"></use></g></g><g><use xlink:href="#c1C6MEDZhM" opacity="1" fill="#9f616a" fill-opacity="1"></use><g><use xlink:href="#c1C6MEDZhM" opacity="1" fill-opacity="0" stroke="#000000" stroke-width="1" stroke-opacity="0"></use></g></g><g><use xlink:href="#a2xh0GSgmx" opacity="1" fill="#9f616a" fill-opacity="1"></use><g><use xlink:href="#a2xh0GSgmx" opacity="1" fill-opacity="0" stroke="#000000" stroke-width="1" stroke-opacity="0"></use></g></g><g><use xlink:href="#alNonepR" opacity="1" fill="#3f3d56" fill-opacity="1"></use><g><use xlink:href="#alNonepR" opacity="1" fill-opacity="0" stroke="#000000" stroke-width="1" stroke-opacity="0"></use></g></g><g><use xlink:href="#b2aP1g8wC8" opacity="1" fill="#3f3d56" fill-opacity="1"></use><g><use xlink:href="#b2aP1g8wC8" opacity="1" fill-opacity="0" stroke="#000000" stroke-width="1" stroke-opacity="0"></use></g></g><g><use xlink:href="#gr8QPfnGR" opacity="1" fill="#3f3d56" fill-opacity="1"></use><g><use xlink:href="#gr8QPfnGR" opacity="1" fill-opacity="0" stroke="#000000" stroke-width="1" stroke-opacity="0"></use></g></g><g><use xlink:href="#b6KHyYsP1e" opacity="1" fill="#cccccc" fill-opacity="1"></use><g><use xlink:href="#b6KHyYsP1e" opacity="1" fill-opacity="0" stroke="#000000" stroke-width="1" stroke-opacity="0"></use></g></g><g><use xlink:href="#h46LL9dixF" opacity="1" fill="#2f2e41" fill-opacity="1"></use><g><use xlink:href="#h46LL9dixF" opacity="1" fill-opacity="0" stroke="#000000" stroke-width="1" stroke-opacity="0"></use></g></g><g><use xlink:href="#fc7rRN82f" opacity="1" fill="#f2f2f2" fill-opacity="1"></use><g><use xlink:href="#fc7rRN82f" opacity="1" fill-opacity="0" stroke="#000000" stroke-width="1" stroke-opacity="0"></use></g></g><g><use xlink:href="#a382sdnOG" opacity="1" fill="#e6e6e6" fill-opacity="1"></use><g><use xlink:href="#a382sdnOG" opacity="1" fill-opacity="0" stroke="#000000" stroke-width="1" stroke-opacity="0"></use></g></g><g><use xlink:href="#b4MAV6S7Q" opacity="1" fill="#e6e6e6" fill-opacity="1"></use><g><use xlink:href="#b4MAV6S7Q" opacity="1" fill-opacity="0" stroke="#000000" stroke-width="1" stroke-opacity="0"></use></g></g><g><use xlink:href="#b8kQDKu7lB" opacity="1" fill="#e6e6e6" fill-opacity="1"></use><g><use xlink:href="#b8kQDKu7lB" opacity="1" fill-opacity="0" stroke="#000000" stroke-width="1" stroke-opacity="0"></use></g></g><g><use xlink:href="#beDLLWzR" opacity="1" fill="#e6e6e6" fill-opacity="1"></use><g><use xlink:href="#beDLLWzR" opacity="1" fill-opacity="0" stroke="#000000" stroke-width="1" stroke-opacity="0"></use></g></g><g><use xlink:href="#dLm5lZDSi" opacity="1" fill="#e6e6e6" fill-opacity="1"></use><g><use xlink:href="#dLm5lZDSi" opacity="1" fill-opacity="0" stroke="#000000" stroke-width="1" stroke-opacity="0"></use></g></g><g><use xlink:href="#l1B86PMOj" opacity="1" fill="#e6e6e6" fill-opacity="1"></use><g><use xlink:href="#l1B86PMOj" opacity="1" fill-opacity="0" stroke="#000000" stroke-width="1" stroke-opacity="0"></use></g></g><g><use xlink:href="#d1BiRzWT4Q" opacity="1" fill="#e6e6e6" fill-opacity="1"></use><g><use xlink:href="#d1BiRzWT4Q" opacity="1" fill-opacity="0" stroke="#000000" stroke-width="1" stroke-opacity="0"></use></g></g><g><use xlink:href="#d1ADXeVZcQ" opacity="1" fill="#e6e6e6" fill-opacity="1"></use><g><use xlink:href="#d1ADXeVZcQ" opacity="1" fill-opacity="0" stroke="#000000" stroke-width="1" stroke-opacity="0"></use></g></g><g><use xlink:href="#al7nyyyiZ" opacity="1" fill="#e6e6e6" fill-opacity="1"></use><g><use xlink:href="#al7nyyyiZ" opacity="1" fill-opacity="0" stroke="#000000" stroke-width="1" stroke-opacity="0"></use></g></g><g><use xlink:href="#biGSnEhyO" opacity="1" fill="#9f616a" fill-opacity="1"></use><g><use xlink:href="#biGSnEhyO" opacity="1" fill-opacity="0" stroke="#000000" stroke-width="1" stroke-opacity="0"></use></g></g><g><use xlink:href="#a4wahHsJsN" opacity="1" fill="#3f3d56" fill-opacity="1"></use><g><use xlink:href="#a4wahHsJsN" opacity="1" fill-opacity="0" stroke="#000000" stroke-width="1" stroke-opacity="0"></use></g></g><g><use xlink:href="#a2MZHKDpa" opacity="1" fill="#e6e6e6" fill-opacity="1"></use><g><use xlink:href="#a2MZHKDpa" opacity="1" fill-opacity="0" stroke="#000000" stroke-width="1" stroke-opacity="0"></use></g></g><g><use xlink:href="#agPukvTp" opacity="1" fill="#cccccc" fill-opacity="1"></use><g><use xlink:href="#agPukvTp" opacity="1" fill-opacity="0" stroke="#000000" stroke-width="1" stroke-opacity="0"></use></g></g><g><use xlink:href="#aCRYVeKmq" opacity="1" fill="#e6e6e6" fill-opacity="1"></use><g><use xlink:href="#aCRYVeKmq" opacity="1" fill-opacity="0" stroke="#000000" stroke-width="1" stroke-opacity="0"></use></g></g><g><use xlink:href="#bvHN4NQiD" opacity="1" fill="#e6e6e6" fill-opacity="1"></use><g><use xlink:href="#bvHN4NQiD" opacity="1" fill-opacity="0" stroke="#000000" stroke-width="1" stroke-opacity="0"></use></g></g><g><use xlink:href="#b2UOboiDVa" opacity="1" fill="#9f616a" fill-opacity="1"></use><g><use xlink:href="#b2UOboiDVa" opacity="1" fill-opacity="0" stroke="#000000" stroke-width="1" stroke-opacity="0"></use></g></g><g><use xlink:href="#bsTdimmt8" opacity="1" fill="#000000" fill-opacity="1"></use><g><use xlink:href="#bsTdimmt8" opacity="1" fill-opacity="0" stroke="#000000" stroke-width="1" stroke-opacity="0"></use></g></g><g><use xlink:href="#b2PUSpFJ5T" opacity="1" fill="#f2f2f2" fill-opacity="1"></use><g><use xlink:href="#b2PUSpFJ5T" opacity="1" fill-opacity="0" stroke="#000000" stroke-width="1" stroke-opacity="0"></use></g></g><g><use xlink:href="#ceuY4aLSg" opacity="1" fill="#f2f2f2" fill-opacity="1"></use><g><use xlink:href="#ceuY4aLSg" opacity="1" fill-opacity="0" stroke="#000000" stroke-width="1" stroke-opacity="0"></use></g></g><g><use xlink:href="#a6yUwyxyw" opacity="1" fill="#f2f2f2" fill-opacity="1"></use><g><use xlink:href="#a6yUwyxyw" opacity="1" fill-opacity="0" stroke="#000000" stroke-width="1" stroke-opacity="0"></use></g></g><g><use xlink:href="#cGeIQxfLw" opacity="1" fill="#639eff" fill-opacity="1"></use><g><use xlink:href="#cGeIQxfLw" opacity="1" fill-opacity="0" stroke="#000000" stroke-width="1" stroke-opacity="0"></use></g></g><g><use xlink:href="#e1FRB5iY1" opacity="1" fill="#3f3d56" fill-opacity="1"></use><g><use xlink:href="#e1FRB5iY1" opacity="1" fill-opacity="0" stroke="#000000" stroke-width="1" stroke-opacity="0"></use></g></g><g><use xlink:href="#aD06hQsV" opacity="1" fill="#3f3d56" fill-opacity="1"></use><g><use xlink:href="#aD06hQsV" opacity="1" fill-opacity="0" stroke="#000000" stroke-width="1" stroke-opacity="0"></use></g></g><g><use xlink:href="#c9b5hvphA" opacity="1" fill="#2f2e41" fill-opacity="1"></use><g><use xlink:href="#c9b5hvphA" opacity="1" fill-opacity="0" stroke="#000000" stroke-width="1" stroke-opacity="0"></use></g></g><g><use xlink:href="#a19Cere7Af" opacity="1" fill="#ffb9b9" fill-opacity="1"></use><g><use xlink:href="#a19Cere7Af" opacity="1" fill-opacity="0" stroke="#000000" stroke-width="1" stroke-opacity="0"></use></g></g><g><use xlink:href="#bkzrLtbEi" opacity="1" fill="#ffb9b9" fill-opacity="1"></use><g><use xlink:href="#bkzrLtbEi" opacity="1" fill-opacity="0" stroke="#000000" stroke-width="1" stroke-opacity="0"></use></g></g><g><use xlink:href="#beUI0ziLt" opacity="1" fill="#ffb9b9" fill-opacity="1"></use><g><use xlink:href="#beUI0ziLt" opacity="1" fill-opacity="0" stroke="#000000" stroke-width="1" stroke-opacity="0"></use></g></g><g><use xlink:href="#a155IGOnX2" opacity="1" fill="#2f2e41" fill-opacity="1"></use><g><use xlink:href="#a155IGOnX2" opacity="1" fill-opacity="0" stroke="#000000" stroke-width="1" stroke-opacity="0"></use></g></g><g><use xlink:href="#a1NL0STv6" opacity="1" fill="#2f2e41" fill-opacity="1"></use><g><use xlink:href="#a1NL0STv6" opacity="1" fill-opacity="0" stroke="#000000" stroke-width="1" stroke-opacity="0"></use></g></g><g><use xlink:href="#b2RMwfOuea" opacity="1" fill="#ffb9b9" fill-opacity="1"></use><g><use xlink:href="#b2RMwfOuea" opacity="1" fill-opacity="0" stroke="#000000" stroke-width="1" stroke-opacity="0"></use></g></g><g><use xlink:href="#a1GEMywsch" opacity="1" fill="#2f2e41" fill-opacity="1"></use><g><use xlink:href="#a1GEMywsch" opacity="1" fill-opacity="0" stroke="#000000" stroke-width="1" stroke-opacity="0"></use></g></g><g><use xlink:href="#b9LdOzgzv" opacity="1" fill="#ffb9b9" fill-opacity="1"></use><g><use xlink:href="#b9LdOzgzv" opacity="1" fill-opacity="0" stroke="#000000" stroke-width="1" stroke-opacity="0"></use></g></g><g><use xlink:href="#g1fP4SWjIk" opacity="1" fill="#ffb9b9" fill-opacity="1"></use><g><use xlink:href="#g1fP4SWjIk" opacity="1" fill-opacity="0" stroke="#000000" stroke-width="1" stroke-opacity="0"></use></g></g><g><use xlink:href="#bIWY2a972" opacity="1" fill="#3f3d56" fill-opacity="1"></use><g><use xlink:href="#bIWY2a972" opacity="1" fill-opacity="0" stroke="#000000" stroke-width="1" stroke-opacity="0"></use></g></g><g><use xlink:href="#c27vruIZ4U" opacity="1" fill="#3f3d56" fill-opacity="1"></use><g><use xlink:href="#c27vruIZ4U" opacity="1" fill-opacity="0" stroke="#000000" stroke-width="1" stroke-opacity="0"></use></g></g><g><use xlink:href="#jlVgkdCVQ" opacity="1" fill="#2f2e41" fill-opacity="1"></use><g><use xlink:href="#jlVgkdCVQ" opacity="1" fill-opacity="0" stroke="#000000" stroke-width="1" stroke-opacity="0"></use></g></g><g><use xlink:href="#e161Avf1mF" opacity="1" fill="#2f2e41" fill-opacity="1"></use><g><use xlink:href="#e161Avf1mF" opacity="1" fill-opacity="0" stroke="#000000" stroke-width="1" stroke-opacity="0"></use></g></g><g><use xlink:href="#d25Xm8ZXts" opacity="1" fill="#2f2e41" fill-opacity="1"></use><g><use xlink:href="#d25Xm8ZXts" opacity="1" fill-opacity="0" stroke="#000000" stroke-width="1" stroke-opacity="0"></use></g></g><g><use xlink:href="#d7co4cULk" opacity="1" fill="#3f3d56" fill-opacity="1"></use><g><use xlink:href="#d7co4cULk" opacity="1" fill-opacity="0" stroke="#000000" stroke-width="1" stroke-opacity="0"></use></g></g><g><use xlink:href="#a2iOU7FkA0" opacity="1" fill="#3f3d56" fill-opacity="1"></use><g><use xlink:href="#a2iOU7FkA0" opacity="1" fill-opacity="0" stroke="#000000" stroke-width="1" stroke-opacity="0"></use></g></g></g></g></svg>